<svg xmlns="http://www.w3.org/2000/svg" viewBox="0 0 900 900">
  <rect width="900" height="900" fill="#060606"/>
  <path d="M452 96 655 214v234c0 151-82 284-203 356-121-72-203-205-203-356V214z" fill="#f8f8f4"/>
  <path d="M291 243 452 149l23 195c-62 44-118 79-184 104z" fill="#FF2E93"/>
  <path d="M497 160 618 232v221c-54-23-101-56-140-100 31-61 37-125 19-193z" fill="#1FA8A0"/>
  <path d="M307 542c94 53 193 61 296 17-26 83-75 145-151 192-70-44-119-113-145-209z" fill="#FF6B1A"/>
  <path d="M376 373h154v38H376zM394 472h116v35H394z" fill="#0b0b0b"/>
</svg>
