<svg xmlns="http://www.w3.org/2000/svg" viewBox="0 0 900 900">
  <rect width="900" height="900" fill="#070707"/>
  <path d="M228 694V347c0-132 100-236 224-236s224 104 224 236v347c-44-38-86-38-128 0-43-38-86-38-129 0-43-38-86-38-129 0-21-19-42-29-62-29z" fill="#f8f8f3"/>
  <path d="M259 367c14-118 92-191 203-192 8 92-10 167-55 226-42 55-92 89-148 102z" fill="#FF2E93"/>
  <path d="M484 183c95 25 153 96 156 190 2 66-24 128-75 185-22-96-61-161-116-194 32-55 43-115 35-181z" fill="#1FA8A0"/>
  <path d="M319 583c88 52 188 56 302 11-8 62-37 104-89 126-81 34-154-8-213-137z" fill="#FF6B1A"/>
  <circle cx="375" cy="376" r="28" fill="#0b0b0b"/>
  <circle cx="527" cy="376" r="28" fill="#0b0b0b"/>
</svg>
