<svg xmlns="http://www.w3.org/2000/svg" viewBox="0 0 900 900">
  <rect width="900" height="900" fill="#080808"/>
  <path d="M190 520c0-145 118-255 270-255h82c99 0 178 81 178 181v91c0 79-64 143-143 143H333c-79 0-143-64-143-143z" fill="#f6f6f0"/>
  <circle cx="650" cy="268" r="78" fill="#f6f6f0"/>
  <path d="M627 326c68 12 114 60 114 126v70c0 65-45 121-108 136-8-84-50-143-126-177 54-48 94-99 120-155z" fill="#1FA8A0"/>
  <path d="M245 459c36-116 123-171 261-166-30 70-59 128-103 178-44 51-94 79-158 88z" fill="#FF2E93"/>
  <path d="M325 590c96 42 197 37 302 1-29 59-76 89-141 92-76 4-129-27-161-93z" fill="#FF6B1A"/>
  <circle cx="605" cy="420" r="19" fill="#0b0b0b"/>
  <circle cx="724" cy="430" r="18" fill="#0b0b0b"/>
</svg>
